<?xml version="1.0" encoding="UTF-8" standalone="no"?>
<!-- Created with Inkscape (http://www.inkscape.org/) -->

<svg
   xmlns:dc="http://purl.org/dc/elements/1.1/"
   xmlns:cc="http://creativecommons.org/ns#"
   xmlns:rdf="http://www.w3.org/1999/02/22-rdf-syntax-ns#"
   xmlns:svg="http://www.w3.org/2000/svg"
   xmlns="http://www.w3.org/2000/svg"
   xmlns:sodipodi="http://sodipodi.sourceforge.net/DTD/sodipodi-0.dtd"
   xmlns:inkscape="http://www.inkscape.org/namespaces/inkscape"
   width="1240.1575"
   height="1027.5591"
   id="svg2"
   version="1.1"
   inkscape:version="0.47 r22583"
   sodipodi:docname="Hauptstrasse Nummer 20.svg">
  <defs
     id="defs4">
    <inkscape:perspective
       id="perspective6815"
       inkscape:persp3d-origin="0.5 : 0.33333333 : 1"
       inkscape:vp_z="1 : 0.5 : 1"
       inkscape:vp_y="0 : 1000 : 0"
       inkscape:vp_x="0 : 0.5 : 1"
       sodipodi:type="inkscape:persp3d" />
    <inkscape:perspective
       id="perspective6815-2"
       inkscape:persp3d-origin="0.5 : 0.33333333 : 1"
       inkscape:vp_z="1 : 0.5 : 1"
       inkscape:vp_y="0 : 1000 : 0"
       inkscape:vp_x="0 : 0.5 : 1"
       sodipodi:type="inkscape:persp3d" />
    <inkscape:perspective
       id="perspective6815-9"
       inkscape:persp3d-origin="0.5 : 0.33333333 : 1"
       inkscape:vp_z="1 : 0.5 : 1"
       inkscape:vp_y="0 : 1000 : 0"
       inkscape:vp_x="0 : 0.5 : 1"
       sodipodi:type="inkscape:persp3d" />
    <inkscape:perspective
       id="perspective6815-4"
       inkscape:persp3d-origin="0.5 : 0.33333333 : 1"
       inkscape:vp_z="1 : 0.5 : 1"
       inkscape:vp_y="0 : 1000 : 0"
       inkscape:vp_x="0 : 0.5 : 1"
       sodipodi:type="inkscape:persp3d" />
    <inkscape:perspective
       id="perspective6815-1"
       inkscape:persp3d-origin="0.5 : 0.33333333 : 1"
       inkscape:vp_z="1 : 0.5 : 1"
       inkscape:vp_y="0 : 1000 : 0"
       inkscape:vp_x="0 : 0.5 : 1"
       sodipodi:type="inkscape:persp3d" />
    <inkscape:perspective
       id="perspective6815-96"
       inkscape:persp3d-origin="0.5 : 0.33333333 : 1"
       inkscape:vp_z="1 : 0.5 : 1"
       inkscape:vp_y="0 : 1000 : 0"
       inkscape:vp_x="0 : 0.5 : 1"
       sodipodi:type="inkscape:persp3d" />
  </defs>
  <sodipodi:namedview
     id="base"
     pagecolor="#ffffff"
     bordercolor="#666666"
     borderopacity="1.0"
     inkscape:pageopacity="0.0"
     inkscape:pageshadow="2"
     inkscape:zoom="0.061871843"
     inkscape:cx="-2371.1517"
     inkscape:cy="2795.5016"
     inkscape:document-units="px"
     inkscape:current-layer="layer1"
     showgrid="false"
     units="cm"
     inkscape:window-width="1680"
     inkscape:window-height="994"
     inkscape:window-x="-4"
     inkscape:window-y="-4"
     inkscape:window-maximized="1" />
  <metadata
     id="metadata7">
    <rdf:RDF>
      <cc:Work
         rdf:about="">
        <dc:format>image/svg+xml</dc:format>
        <dc:type
           rdf:resource="http://purl.org/dc/dcmitype/StillImage" />
        <dc:title></dc:title>
      </cc:Work>
    </rdf:RDF>
  </metadata>
  <g
     inkscape:label="Ebene 1"
     inkscape:groupmode="layer"
     id="layer1"
     transform="translate(0,-24.801882)">
    <g
       id="g5687"
       transform="translate(6233.7595,3314.7919)">
      <polyline
         transform="matrix(34.99403,0,0,34.517491,-6238.5867,-3294.7495)"
         id="polyline2834-7-8-5-2-7-4"
         points="0.142,29.903 35.573,29.903 35.573,0.142 0.142,0.142   0.142,29.903 "
         style="fill:#ffffff;stroke:#000000;stroke-width:0.0081715;stroke-miterlimit:4;stroke-dasharray:none" />
      <polyline
         transform="matrix(35.873335,0,0,35.530451,-6253.5355,-3310.5529)"
         id="polyline2836-4-8-5-7-4-0"
         points="34.134,28.502 1.539,28.502 1.539,1.576 34.134,1.576 34.134,28.502 "
         style="fill:#0062ac" />
      <g
         transform="translate(1291.4286,-5040)"
         id="g5018">
        <polyline
           points="24.615,24.992 27.627,24.992 27.627,5.152 24.985,5.152 20.55,9.188 22.03,11.319 24.615,8.677   24.615,24.992 24.615,24.992 "
           id="polyline9-9-6"
           transform="matrix(37.504668,0,0,37.504668,-7584.4237,1698.5192)"
           style="fill:#ffffff;fill-opacity:1" />
        <path
           d="m -7261.9365,2635.8358 h 400.9843 v -93.5347 h -275.6419 l 27.3272,-29.475 0,0 c 32.6593,-35.8437 64.2449,-72.6502 93.7196,-110.6417 28.4011,-36.7693 53.5805,-74.65 75.7236,-111.5678 22.1434,-36.7693 38.9175,-72.5021 51.47,-108.383 12.664,-34.77 18.9219,-68.3922 18.9219,-99.9774 0,-26.4015 -4.1104,-50.5444 -11.442,-73.7243 -8.5165,-23.18 -20.9212,-43.2125 -36.8065,-61.0606 -16.8113,-16.811 -37.8434,-30.5484 -62.1343,-41.0647 -25.1793,-9.4425 -54.6543,-14.6634 -88.3873,-14.6634 -34.7704,0 -67.3185,4.1472 -95.8306,11.4787 -29.5119,8.5169 -56.839,19.0328 -81.0931,31.5856 l 0,0 11.59,107.4574 0,0 c 16.9221,-13.7746 37.8434,-27.364 62.0975,-38.954 24.2537,-11.5899 51.6181,-17.9962 82.1296,-17.9962 32.6593,0 58.9128,10.5162 76.7978,32.6593 17.9958,22.1435 27.4751,49.4334 27.4751,84.2406 0,24.2537 -5.3321,50.5072 -15.8851,78.9081 -11.59,28.4012 -26.2535,58.9128 -46.2491,89.4615 -19.9956,31.5856 -43.2124,64.2449 -69.429,99.0149 -27.4753,34.6591 -56.9499,70.5396 -89.5724,107.3093 l 0,0 -55.7281,64.245 v 94.6824 l -0.037,0"
           id="path7-9-6-3"
           style="fill:#ffffff;fill-opacity:1" />
      </g>
    </g>
  </g>
</svg>
